<?xml version="1.0" encoding="UTF-8"?>
<!DOCTYPE svg PUBLIC "-//W3C//DTD SVG 1.1//EN" "http://www.w3.org/Graphics/SVG/1.1/DTD/svg11.dtd">
<!-- Creator: CorelDRAW 2021 (64-Bit) -->
<svg xmlns="http://www.w3.org/2000/svg" xml:space="preserve" width="45mm" height="45mm" version="1.1" style="shape-rendering:geometricPrecision; text-rendering:geometricPrecision; image-rendering:optimizeQuality; fill-rule:evenodd; clip-rule:evenodd"
viewBox="0 0 4500 4500"
 xmlns:xlink="http://www.w3.org/1999/xlink"
 xmlns:xodm="http://www.corel.com/coreldraw/odm/2003">
 <defs>
  <style type="text/css">
   <![CDATA[
    .fil1 {fill:#373435}
    .fil0 {fill:#00A9E0}
   ]]>
  </style>
 </defs>
 <g id="Capa_x0020_1">
  <metadata id="CorelCorpID_0Corel-Layer"/>
  <path class="fil0" d="M1501.54 2920.63c-62.91,42.42 51.13,114.45 94.16,160.98 52.12,56.36 96.33,88.99 150.57,138.38 99.14,90.26 216,164.93 340.15,245.12 228.83,147.8 534.92,262.59 849.03,321.84 704.27,132.84 1395.53,-104.77 1834.78,-433.18 64.01,-47.86 141.57,-95.12 125.95,-156.78 -22.66,-89.51 -143.02,-8.64 -193.33,15.03 -1009.18,474.83 -2190.06,349.37 -3107.99,-255.59 -23.87,-15.73 -64.45,-55.28 -93.32,-35.8z"/>
  <path class="fil1" d="M5172.42 1935.13c-52.67,-30.56 -94.92,-60.38 -176.77,-63.39 -77.33,-2.85 -140.31,21.73 -181.08,59.44 -42.79,39.58 -70.62,76.25 -96.21,140.68 -86.12,216.77 -24.61,633.31 291.88,602.6 91.67,-8.89 115.31,-44.49 174.82,-77.41l14.85 57.21c40.2,8.74 129.11,8.88 168.1,-0.08 13.92,-49.07 9.39,-898.23 7.44,-1046.67 -0.62,-47.07 -0.06,-55.66 -46.1,-57.52 -146.12,-5.91 -156.33,-6.63 -157.36,57.53l0.43 327.61zm0 535.01l0 -397.03c-188.69,-103.27 -283.07,-0.81 -282.87,201.79 0.21,206.58 101.53,300.66 282.87,195.24z"/>
  <path class="fil0" d="M-151.12 1946.02c-10.28,-23.69 -15.74,-44.86 -28.27,-60.22 -39.53,-11.51 -119.91,-9.39 -154.39,0.53 -12.03,60.51 -10.99,973.01 1.43,1019.18 33.53,9.02 177.64,24.5 194.59,-13.47 4.22,-9.47 3.05,-4.91 4.74,-17.32l1.44 -309.56c55.82,30.3 82.07,58.43 170.3,64.86 377.17,27.5 423.6,-586.6 174.19,-736.45 -119.96,-72.09 -293.01,-17.99 -364.03,52.45zm19.01 106.66l-0.81 384.13c192.6,85.22 291.48,20.66 291.43,-191.57 -0.01,-81.11 -10,-167.83 -69.64,-205.66 -80.54,-51.08 -151.37,-8.59 -220.98,13.1z"/>
  <path class="fil0" d="M1639.21 1946.07c-14.14,-18.56 -14.61,-39.31 -31.41,-61.29 -40.51,-9.07 -114.8,-13.94 -147.23,3.28 -22.98,19.8 -11.92,324.17 -11.93,357.21 -0.02,65.86 -14.61,326.4 12.76,363.78 34.51,14.03 151.65,9.06 186.28,0.05 18.95,-68.83 6.73,-447.81 6.73,-551.89 46.73,-18.99 114.25,-46.02 177.31,-35.26 71.53,12.2 63.86,83.75 63.72,156.62 -0.14,79.89 -8.67,381.33 7.32,431.75 41.94,8.32 149.45,8.15 191.73,0.17 30.15,-104.89 -9.19,-416.78 8.82,-553.12 45.68,-23.88 120.31,-47.38 179.75,-34.33 65.17,14.32 57.82,85.08 57.68,155.54 -0.17,80.35 -8.76,380.06 7.38,431.2 36.01,8.03 153.73,13.67 187.57,-1.74 23.75,-38.17 14.83,-576.86 -5.38,-631.47 -29.5,-79.68 -100.7,-122.07 -209.7,-117.82 -105.31,4.11 -175.01,47.47 -244.27,88.12 -49.08,-41.39 -70.24,-99.58 -215.08,-87.13 -105.87,9.09 -150.43,51.23 -222.05,86.33z"/>
  <path class="fil1" d="M6516.98 1880.72c-230.58,50.87 -289.06,270.68 -261.77,482.75 27.63,214.65 180.42,358.54 428.73,310.87 203.43,-39.05 293.41,-245.17 262.27,-481.5 -28.03,-212.64 -181.69,-366.74 -429.23,-312.12zm52.49 163.36c-104.23,23.99 -119.63,148.48 -113.66,268.02 5.54,110.85 51.47,231.2 182.13,197.69 97.12,-24.9 113.1,-161.22 106.97,-272.27 -6.33,-114.57 -50.19,-222.26 -175.44,-193.44z"/>
  <path class="fil0" d="M3269.68 2452.5c-70.19,-9.37 -163.57,42.76 -279.21,20.02 -81.09,-15.94 -138.82,-80.53 -134.35,-172.48 224.04,51.11 523.11,-15.78 437.09,-286.17 -65.04,-204.46 -401.88,-193.94 -529.24,-51.41 -131.37,147.01 -138.12,456.33 7.34,588.14 115.01,104.2 311.41,106.15 461.11,50.64 61.14,-22.67 52.6,-97.06 37.26,-148.74zm-410.24 -279.08c413.84,76.25 259.14,-268.41 65.89,-145.87 -30.26,19.19 -74.13,86.41 -65.89,145.87z"/>
  <path class="fil1" d="M6099.42 2489.94c-21.27,-13.13 -27.94,-6.41 -57.1,1.46 -65.3,17.63 -137.85,28.14 -204.36,15.04 -91.91,-18.11 -126.07,-75.61 -135.65,-175.76 146.98,21.51 373.68,34.11 425.8,-138.1 92.92,-307.02 -340.42,-425.32 -522.46,-196.54 -111.27,139.84 -124.37,445.29 15.49,586.7 108.62,109.83 302.56,111.59 447.52,54.2 32.36,-12.8 38.53,-17.04 41.2,-57.63 1.95,-29.62 3.3,-69.97 -10.44,-89.37zm-395.08 -288.54c71.46,7.94 227.63,41.52 248.78,-57.76 26.15,-122.83 -113.15,-139.68 -180.05,-91.56 -42.61,30.65 -59.93,79.23 -68.73,149.32z"/>
  <path class="fil1" d="M3854.49 2659.92c156.29,0 128.36,21.29 190.68,-157.33 23.21,-66.51 47.16,-129.9 70.35,-196.34 21.94,-62.89 141.96,-360.35 128.49,-406.06 -66.1,-12.56 -66.15,-6.96 -137.62,-6.46 -68.05,0.47 -58.37,6.01 -86.08,109.62 -13.76,51.48 -28.1,99.79 -42.04,150.93 -27.39,100.49 -54.4,200.88 -83.17,302.6 -30.87,-67.54 -62.07,-222.43 -83.89,-301.45l-61.6 -227.45c-17.86,-49.33 -60.63,-34.25 -169.25,-34.25 -65.79,0 -44.18,35.04 -26.98,82.03l221.46 623.21c18.19,54 17.34,60.95 79.65,60.95z"/>
  <path class="fil0" d="M698.74 1985.98c-7.79,-34.15 -11.4,-75.58 -34.44,-99.89 -29.23,-10.47 -120.21,-14 -150.81,3.55 -16.33,31.15 -15.37,671.78 -1.01,719.09 34.25,9.49 150.61,14.28 185.79,0.82 30.34,-41.11 12.71,-433.85 12.71,-515.96 37.23,-9.03 68.58,-21.51 113.03,-27.36 130.5,-17.17 157.67,52.84 145.24,-147.78 -3.65,-58.78 -44.27,-51.72 -99.07,-41.54 -96.54,17.91 -119.93,74.35 -171.44,109.07z"/>
  <path class="fil0" d="M4791.02 2917.62c-118,13.27 -218.51,51.49 -296.47,108.33 -47.67,34.76 -90.45,94.01 24.11,76.81 98.07,-14.73 284.26,-37.1 375.7,-8.35 67.53,21.23 69.15,67.24 60.98,142.67 -11.27,104.11 -49.26,229.61 -80.43,324.95 -9.77,29.89 -61.51,138.75 -19.55,148.26 26.41,5.99 86.15,-74.26 101.17,-96.27 55.89,-81.92 96.04,-172.19 127.69,-280.15 19.88,-67.81 66.51,-286.55 34.78,-352.4 -34.38,-71.35 -243.85,-73.31 -327.98,-63.85z"/>
  <path class="fil1" d="M4348.4 1956.32c0,150.73 -7.68,577.26 6.11,698.11 74.88,10.38 114.87,7.76 189.67,0.13 18.95,-121.98 6.96,-552.56 6.78,-705.65 -0.08,-68.4 -9.65,-55.18 -148.21,-55.18 -52.27,0 -54.35,12.83 -54.35,62.59z"/>
  <path class="fil0" d="M1073.32 1884.63c-11.1,94.56 -9.94,627.82 0.93,724.17 79.1,12.19 60.88,7.43 142.65,6.72 52.9,0 57.35,-7.35 57.35,-59.08l0 -622.35c0,-56.61 0.4,-61.07 -146.26,-54.42l-54.67 4.96z"/>
  <path class="fil1" d="M4422.06 1544.24c-142.57,28.71 -109.03,265.98 61.1,226.76 135.25,-31.17 100.42,-259.28 -61.1,-226.76z"/>
  <path class="fil0" d="M1140.83 1544.9c-142.11,31.12 -110.03,257.48 66.51,216.61 132.64,-30.7 101.08,-253.3 -66.51,-216.61z"/>
 </g>
</svg>
