<?xml version="1.0" encoding="UTF-8"?>
<!DOCTYPE svg PUBLIC "-//W3C//DTD SVG 1.1//EN" "http://www.w3.org/Graphics/SVG/1.1/DTD/svg11.dtd">
<!-- Creator: CorelDRAW 2021 (64-Bit) -->
<svg xmlns="http://www.w3.org/2000/svg" xml:space="preserve" width="210mm" height="297mm" version="1.1" style="shape-rendering:geometricPrecision; text-rendering:geometricPrecision; image-rendering:optimizeQuality; fill-rule:evenodd; clip-rule:evenodd"
viewBox="0 0 21000 29700"
 xmlns:xlink="http://www.w3.org/1999/xlink"
 xmlns:xodm="http://www.corel.com/coreldraw/odm/2003">
 <defs>
  <style type="text/css">
   <![CDATA[
    .fil0 {fill:#19303E}
   ]]>
  </style>
 </defs>
 <g id="Capa_x0020_1">
  <metadata id="CorelCorpID_0Corel-Layer"/>
  <path class="fil0" d="M15134.23 11448.1l-9443.11 -6.27c-52.3,851.43 -2.51,2431.85 -5.87,3421.81 -1.34,394.46 -4.61,664.53 284.06,879.28 372.09,276.81 1584.29,163.53 2150.24,163.53 1528.7,0 3057.4,0 4586.1,0 567.43,0 1773.86,113.2 2150.62,-162.46 438.46,-320.8 283.32,-1418.8 283.32,-2009.25 0,-728.49 39.14,-1572.5 -5.36,-2286.64z"/>
  <path class="fil0" d="M5690.37 9847.72l9444.46 4c29.67,-627.46 4.31,-1308.06 4.74,-1937.81 0.32,-461.29 34.88,-1134.3 -810.3,-1149.96 -1295.21,-23.99 -2618.24,1.3 -3916.67,1.3 -1292.77,0 -2588.67,-9.08 -3880.99,-1.33 -815.61,4.89 -847.01,553.1 -846.23,1114.71 0.89,641.43 -25.57,1334.33 4.99,1969.09zm8672.86 -473.87c27.86,-426.91 -172.12,-266.12 -133.7,-674.88 21.95,-233.51 -28.72,-585.17 -7.13,-744.88 19.59,-144.89 303.69,-426.89 50.31,-584.33 -201.52,-125.21 -466.94,33.85 -651.89,52.31 -77.94,7.79 -1063.22,-63.68 -1585.92,-34.66 -259.48,14.41 -503.7,69.93 -735.62,-6.04 -388.98,-127.42 -764.55,-45.03 -490.47,454.05 85.8,156.24 54.05,138.29 35.45,328.72 -16.83,172.25 25.37,686.14 3.13,751.59 -44.02,129.55 -273.75,395.11 -42.71,544.55 214.05,138.45 468.89,-43.1 670.58,-53.09 205.98,-10.2 510.88,34.82 735.59,41.04 366.76,10.16 1381.78,-54.93 1516.66,-15.45 323.12,94.57 385.08,143.16 635.72,-58.93zm-7901.94 -0.42c228.45,179.46 302.54,168.81 610.74,67.19 167.47,-55.22 1107.27,20.05 1506.98,8.15 228.1,-6.8 565.09,-55 770.55,-42.99 194.75,11.39 460.66,193.06 670.64,54.85 230.93,-151.99 0.58,-415.81 -42.55,-544.7 -21.47,-64.14 20.65,-580.28 4.09,-752.24 -17.93,-186.12 -49.92,-174.93 34.79,-328.08 266.04,-480.96 -80.92,-572.5 -434.8,-470.15 -375.1,108.49 -943.42,-7.23 -1532.74,10.41 -247.03,7.4 -581.69,57.03 -811.01,48.1 -206.92,-8.06 -440.83,-178.56 -662.95,-67.71 -254.95,127.23 -15.62,400.98 22.61,568 25.33,110.66 -22.65,551.72 -5.6,740.06 41.91,463.1 -156.29,293.7 -130.75,709.11z"/>
  <path class="fil0" d="M5381.71 10277.52l18.58 912.57c271.32,109.68 7966.19,21.71 9669.79,40.84 441.1,4.95 373.1,57.89 372.89,-882.86 -0.05,-303.37 -37.59,-287.39 -338.43,-287.39l-9383.88 0c-232.35,0 -339.02,-30.99 -338.95,216.84z"/>
  <path class="fil0" d="M10921.04 9279.79c234.06,45.79 399.86,-99.06 743.69,-72.8 600.6,45.88 1107.39,53.2 1709.24,0.22 412.08,-36.27 439.47,92.5 783.59,88.6 -27.74,-267.15 -143.26,-179.55 -157.19,-394.48 -6.96,-107.25 34.42,-351.81 34.67,-493.78 0.23,-129.98 -42.1,-401.51 -31.69,-492.35 21.48,-187.59 154.24,-144.62 141.59,-378.9 -348.25,-2.72 -339.33,122.31 -764.31,85.37 -623.5,-54.19 -1085.17,-52.16 -1708.34,2.54 -548.17,48.12 -419.53,-138.51 -742.11,-75.36 -9.53,199.88 115.45,206.66 142.25,339.81 17.88,88.85 -31.42,392.43 -31.25,518.96 0.2,148.65 42.52,375.46 36.69,493.57 -9.55,193.72 -135.22,150.04 -156.83,378.6z"/>
  <path class="fil0" d="M6669.39 9291.18c331.21,13.71 366.94,-119.94 747.66,-86.01 586.11,52.24 1122.59,49.73 1709.12,4.24 616.04,-47.77 450.26,147.9 778.17,69.29 -27.01,-206.25 -131.77,-201.71 -153.85,-346.76 -13.6,-89.32 34.59,-392.56 33.98,-524.34 -0.58,-125.44 -44.55,-400.55 -34.92,-489.83 16.29,-151.03 156.49,-193.2 145.88,-369.1 -250.39,-44.35 -369.52,108.73 -742.74,76.39 -604.65,-52.4 -1105.21,-60.12 -1711.42,-3.58 -413.17,38.53 -440.81,-102.74 -756.12,-81.76 -20.45,206.71 117.39,200.83 138.26,375.88 10.24,85.88 -32.44,364.75 -32.42,491.67 0.03,143.09 42.35,387.09 34.76,493.86 -15.49,217.6 -136.16,132.33 -156.36,390.05z"/>
 </g>
</svg>
